<?xml version="1.0" encoding="UTF-8" standalone="no"?>
<!-- Created with Inkscape (http://www.inkscape.org/) -->

<svg
   xmlns:dc="http://purl.org/dc/elements/1.1/"
   xmlns:cc="http://creativecommons.org/ns#"
   xmlns:rdf="http://www.w3.org/1999/02/22-rdf-syntax-ns#"
   xmlns:svg="http://www.w3.org/2000/svg"
   xmlns="http://www.w3.org/2000/svg"
   version="1.1"
   width="538.58264"
   height="538.58264"
   id="svg34891"
   xml:space="preserve"><metadata
     id="metadata34897"><rdf:RDF><cc:Work
         rdf:about=""><dc:format>image/svg+xml</dc:format><dc:type
           rdf:resource="http://purl.org/dc/dcmitype/StillImage" /><dc:title></dc:title></cc:Work></rdf:RDF></metadata><defs
     id="defs34895"><clipPath
       id="clipPath34919"><path
         d="m 41.243,604.08 58.321,0 0,58.32 -58.321,0 0,-58.32 z"
         id="path34921" /></clipPath></defs><g
     transform="matrix(1.25,0,0,-1.25,-179.47744,939.38176)"
     id="g34899"><g
       transform="matrix(7.3186142,0,0,7.3186142,562.89947,-3676.6533)"
       id="g34915"><g
         transform="matrix(1.0003271,0,0,1.0003271,-98.285272,-57.82889)"
         clip-path="url(#clipPath34919)"
         id="g34917"><g
           transform="translate(95.9141,616.5409)"
           id="g34923"><path
             d="m 0,0 c -0.754,0 -1.365,-0.611 -1.365,-1.365 0,-0.753 0.611,-1.364 1.365,-1.364 0.754,0 1.364,0.611 1.364,1.364 C 1.364,-0.611 0.754,0 0,0 z"
             id="path34925"
             style="fill:none;stroke:#000000;stroke-width:0.08;stroke-linecap:butt;stroke-linejoin:miter;stroke-miterlimit:4;stroke-opacity:1;stroke-dasharray:none" /></g><g
           transform="translate(70.4039,662.2392)"
           id="g34927"><path
             d="m 0,0 c -16.016,0 -28.999,-12.984 -28.999,-28.999 0,-16.016 12.983,-29 28.999,-29 16.016,0 28.999,12.984 28.999,29 C 28.999,-12.984 16.016,0 0,0"
             id="path34929"
             style="fill:#ffffff;fill-opacity:1;fill-rule:nonzero;stroke:none" /></g><g
           transform="translate(70.4039,662.2392)"
           id="g34931"><path
             d="m 0,0 c -16.016,0 -28.999,-12.984 -28.999,-28.999 0,-16.016 12.983,-29 28.999,-29 16.016,0 28.999,12.984 28.999,29 C 28.999,-12.984 16.016,0 0,0 z"
             id="path34933"
             style="fill:none;stroke:#000000;stroke-width:0.08;stroke-linecap:butt;stroke-linejoin:miter;stroke-miterlimit:4;stroke-opacity:1;stroke-dasharray:none" /></g><g
           transform="translate(70.4039,661.1021)"
           id="g34935"><path
             d="m 0,0 c -15.388,0 -27.862,-12.475 -27.862,-27.862 0,-15.388 12.474,-27.862 27.862,-27.862 15.387,0 27.862,12.474 27.862,27.862 C 27.862,-12.475 15.387,0 0,0"
             id="path34937"
             style="fill:#004678;fill-opacity:1;fill-rule:nonzero;stroke:none" /></g><g
           transform="translate(70.4039,661.1021)"
           id="g34939"><path
             d="m 0,0 c -15.388,0 -27.862,-12.475 -27.862,-27.862 0,-15.388 12.474,-27.862 27.862,-27.862 15.387,0 27.862,12.474 27.862,27.862 C 27.862,-12.475 15.387,0 0,0 z"
             id="path34941"
             style="fill:none;stroke:#000000;stroke-width:0.48199999;stroke-linecap:butt;stroke-linejoin:miter;stroke-miterlimit:4;stroke-opacity:1;stroke-dasharray:none" /></g><g
           transform="translate(70.4039,651.7767)"
           id="g34943"><path
             d="m 0,0 c -10.237,0 -18.537,-8.299 -18.537,-18.537 0,-10.237 8.3,-18.537 18.537,-18.537 10.238,0 18.537,8.3 18.537,18.537 C 18.537,-8.299 10.238,0 0,0"
             id="path34945"
             style="fill:#000000;fill-opacity:1;fill-rule:nonzero;stroke:none" /></g><g
           transform="translate(70.4039,650.6418)"
           id="g34947"><path
             d="m 0,0 c -9.567,0 -17.323,-7.756 -17.323,-17.323 0,-9.567 7.756,-17.323 17.323,-17.323 9.567,0 17.323,7.756 17.323,17.323 C 17.323,-7.756 9.567,0 0,0"
             id="path34949"
             style="fill:#ed1c2e;fill-opacity:1;fill-rule:nonzero;stroke:none" /></g><g
           transform="translate(70.4039,650.6418)"
           id="g34951"><path
             d="m 0,0 c -9.567,0 -17.323,-7.756 -17.323,-17.323 0,-9.567 7.756,-17.323 17.323,-17.323 9.567,0 17.323,7.756 17.323,17.323 C 17.323,-7.756 9.567,0 0,0 z"
             id="path34953"
             style="fill:none;stroke:#ffffff;stroke-width:0.80400002;stroke-linecap:butt;stroke-linejoin:miter;stroke-miterlimit:4;stroke-opacity:1;stroke-dasharray:none" /></g><g
           transform="translate(55.668,646.5284)"
           id="g34955"><path
             d="m 0,0 -4.091,4.272 c 1.277,1.468 3.205,2.96 3.91,3.448 C 0.56,8.232 2.473,8.443 3.498,7.117 4.523,5.79 4.654,3.785 4.141,3.498 3.639,3.217 2.593,2.463 1.97,1.91 1.66,1.635 0.774,0.896 0,0"
             id="path34957"
             style="fill:#ffffff;fill-opacity:1;fill-rule:nonzero;stroke:none" /></g><g
           transform="translate(79.9129,654.0873)"
           id="g34959"><path
             d="M 0,0 2.272,2.071 C 3.445,1.514 4.039,1.076 4.925,0.523 4.963,0.499 2.694,-5.207 2.694,-5.207 c -1.347,1.046 -2.071,1.428 -2.071,1.428 0,0 1.448,3.055 1.428,3.055 l -2.574,-2.392 c -0.663,0.362 -1.045,0.462 -1.467,0.663 l 0,3.297 -1.186,-2.834 c -1.006,0.301 -1.709,0.502 -2.393,0.623 l 2.674,5.448 C -1.89,3.779 -1.126,3.57 0,3.116 0.018,3.109 0,0 0,0"
             id="path34961"
             style="fill:#ffffff;fill-opacity:1;fill-rule:nonzero;stroke:none" /></g><g
           transform="translate(89.0802,639.9143)"
           id="g34963"><path
             d="m 0,0 c 0,0 4.289,1.646 4.302,1.608 0.643,-1.93 0.623,-1.889 0.623,-1.889 0.121,0 1.247,0.321 1.247,0.321 C 5.488,2.935 3.8,5.91 3.8,5.91 L 2.593,5.388 c 0,0 0.925,-1.649 0.925,-1.81 L -0.784,1.809 C -0.442,1.126 -0.241,0.824 0,0"
             id="path34965"
             style="fill:#ffffff;fill-opacity:1;fill-rule:nonzero;stroke:none" /></g><g
           transform="translate(90.1603,634.4264)"
           id="g34967"><path
             d="M 0,0 C 0,0 4.614,0.5 4.616,0.46 4.665,-0.533 4.671,-1.588 4.671,-1.588 5.45,-1.62 5.938,-1.612 5.938,-1.612 6.093,1.16 5.282,4.679 5.282,4.679 L 3.98,4.498 c 0,0 0.249,-0.79 0.407,-1.99 L -0.231,1.953 C -0.085,1.203 -0.052,0.859 0,0"
             id="path34969"
             style="fill:#ffffff;fill-opacity:1;fill-rule:nonzero;stroke:none" /></g><g
           transform="translate(65.4986,657.1431)"
           id="g34971"><path
             d="m 0,0 c -0.975,-0.181 -2.664,-0.663 -3.398,-0.985 0,0 0.301,-0.883 0.322,-0.875 1.076,0.412 1.83,0.603 2.815,0.835 0,0 0.35,-1.147 0.311,-1.156 -1.206,-0.282 -2.091,-0.523 -2.734,-0.804 l 0.422,-1.116 c 0.811,0.34 2.381,0.723 2.996,0.844 l 0.261,-1.156 c -1.196,-0.211 -3.257,-0.884 -4.674,-1.578 l -2.432,5.388 c 1.829,0.925 4.382,1.679 5.789,1.95 L 0,0 z"
             id="path34973"
             style="fill:#ffffff;fill-opacity:1;fill-rule:nonzero;stroke:none" /></g><g
           transform="translate(52.5117,646.4077)"
           id="g34975"><path
             d="M 0,0 0.804,1.086 C -0.161,1.95 -1.608,1.327 -2.252,0.342 -2.961,-0.744 -3.056,-2.111 -1.85,-3.036 -0.643,-3.96 0.663,-3.84 1.447,-2.473 2.318,-0.955 2.541,-0.641 1.267,0.643 1.238,0.672 0.523,-0.362 0.523,-0.362 0.885,-0.965 1.018,-1.315 0.704,-1.829 0.366,-2.381 -0.201,-2.372 -0.844,-1.97 -1.459,-1.586 -1.706,-1.047 -1.246,-0.281 -0.824,0.422 -0.422,0.141 0,0"
             id="path34977"
             style="fill:#ffffff;fill-opacity:1;fill-rule:nonzero;stroke:none" /></g><g
           transform="translate(50.7024,635.1899)"
           id="g34979"><path
             d="m 0,0 c -0.091,-1.086 -0.101,-1.216 -0.07,-2.473 l -5.911,1.428 c 0.048,1.339 0.131,2.13 0.282,3.136 0.002,0.013 3.256,0.824 3.256,0.824 l -2.653,2.01 c 0.211,0.815 0.744,2.332 0.995,2.926 l 5.9,-1.277 C 1.437,5.79 1.209,5.166 0.925,4.383 c 0,0 -3.438,0.955 -3.428,0.955 0.01,0 3.036,-2.222 3.036,-2.222 C 0.422,2.624 0.241,1.739 0.151,1.216 L -3.478,0.663 0,0 z"
             id="path34981"
             style="fill:#ffffff;fill-opacity:1;fill-rule:nonzero;stroke:none" /></g><g
           transform="translate(54.0999,651.303)"
           id="g34983"><path
             d="M 0,0 C 1.462,1.407 2.325,1.996 3.156,1.076 4.001,0.141 4.227,-0.462 3.609,-0.945 3.593,-0.957 2.151,-2.222 2.171,-2.222 2.191,-2.222 -0.014,-0.014 0,0"
             id="path34985"
             style="fill:#003767;fill-opacity:1;fill-rule:nonzero;stroke:none" /></g><g
           transform="translate(90.2864,650.1872)"
           id="g34987"><path
             d="m 0,0 c 0.751,-0.838 2.581,-3.514 0.04,-5.167 -2.813,-1.829 -4.244,-0.124 -5.126,0.865 -1.005,1.126 -2.322,3.246 -0.201,5.187 C -3.341,2.665 -1.24,1.383 0,0"
             id="path34989"
             style="fill:#ffffff;fill-opacity:1;fill-rule:nonzero;stroke:none" /></g><g
           transform="translate(89.04,649.2625)"
           id="g34991"><path
             d="m 0,0 c 0.782,-0.855 0.844,-1.608 -0.06,-2.433 -0.825,-0.751 -1.709,-1.045 -2.533,-0.1 -0.825,0.945 -0.782,1.821 0.16,2.694 C -1.608,0.925 -0.864,0.945 0,0"
             id="path34993"
             style="fill:#003767;fill-opacity:1;fill-rule:nonzero;stroke:none" /></g><g
           transform="translate(74.1231,652.5996)"
           id="g34995"><path
             d="m 0,0 -0.01,0 c -0.382,0.151 -0.195,0.09 -0.854,0.181 -0.643,0.089 -0.724,0.06 -1.287,0.121 -0.44,0.047 -0.342,0.641 -0.322,1.467 0.019,0.764 -1.206,0.623 -1.206,0.623 l -1.206,-0.05 0.09,-1.869 C -5.73,0.432 -6.136,0.349 -6.835,0.251 -6.847,0.25 -7.388,6.142 -7.388,6.142 -4.576,6.557 -3.049,6.401 -1.679,6.353 -0.347,6.305 0.198,5.368 0.181,4.523 0.161,3.538 -0.643,3.136 -0.965,3.136 -0.462,2.935 -0.187,2.395 -0.181,2.071 -0.161,0.965 -0.342,0.221 0,0"
             id="path34997"
             style="fill:#ffffff;fill-opacity:1;fill-rule:nonzero;stroke:none" /></g><g
           transform="translate(69.1172,657.525)"
           id="g34999"><path
             d="M 0,0 C 1.296,0.02 2.759,0.178 2.764,-0.593 2.77,-1.33 2.503,-1.257 1.327,-1.257 l -1.267,0 C 0.07,-1.257 0,0 0,0"
             id="path35001"
             style="fill:#003767;fill-opacity:1;fill-rule:nonzero;stroke:none" /></g><g
           transform="translate(59.1459,645.3021)"
           id="g35003"><path
             d="m 0,0 8.363,0 2.895,-9.328 2.895,9.328 8.403,0 0,-23.682 -6.795,0 0,8.443 -2.855,-8.403 -3.297,0 -2.854,8.403 c 0.04,0 0,-8.443 0,-8.443 L 0,-23.682 0,0 z"
             id="path35005"
             style="fill:#000000;fill-opacity:1;fill-rule:nonzero;stroke:none" /></g><g
           transform="translate(59.8696,644.4979)"
           id="g35007"><path
             d="M 0,0 6.875,0 10.534,-11.178 14.113,0 21.069,0 c 0,0 -0.041,-22.114 0,-22.114 l -5.268,0 0,12.143 -4.061,-12.143 -2.372,0 c 0.04,0 -4.181,12.183 -4.101,12.143 0.081,-0.041 0,-12.143 0,-12.143 l -5.267,0 C 0.04,-22.114 0,0 0,0"
             id="path35009"
             style="fill:#ffffff;fill-opacity:1;fill-rule:nonzero;stroke:none" /></g><g
           transform="translate(95.9814,615.1956)"
           id="g35011"><path
             d="m 0,0 c 0.114,0 0.212,0.03 0.212,0.163 0,0.09 -0.049,0.157 -0.163,0.157 l -0.304,0 0,-0.32 L 0,0 z m -0.377,0.423 0.432,0 c 0.173,0 0.279,-0.094 0.279,-0.24 0,-0.111 -0.049,-0.202 -0.159,-0.233 l 0,-0.003 c 0.107,-0.02 0.128,-0.099 0.137,-0.189 0.008,-0.09 0.003,-0.19 0.054,-0.253 l -0.136,0 c -0.035,0.037 -0.015,0.136 -0.033,0.226 -0.013,0.09 -0.035,0.166 -0.153,0.166 l -0.299,0 0,-0.392 -0.122,0 0,0.918 z"
             id="path35013"
             style="fill:#000000;fill-opacity:1;fill-rule:nonzero;stroke:none" /></g></g></g></g></svg>